<svg width="66" height="60" viewBox="0 0 66 60" fill="none" xmlns="http://www.w3.org/2000/svg">
<g clip-path="url(#clip0_110_667)">
<path d="M55.7693 46.2738C58.3019 45.6218 60.1789 43.3181 60.1789 40.584C60.1789 37.3443 57.5436 34.709 54.304 34.709C51.0643 34.709 48.429 37.3443 48.429 40.584C48.429 43.3181 50.306 45.6218 52.8386 46.2738C48.6942 46.7981 45.2243 49.5147 43.6301 53.2224C42.0359 49.516 38.566 46.7981 34.4216 46.2738C36.9543 45.6218 38.8313 43.3181 38.8313 40.584C38.8313 37.3443 36.196 34.709 32.9563 34.709C29.7166 34.709 27.0813 37.3443 27.0813 40.584C27.0813 43.3181 28.9583 45.6218 31.491 46.2738C27.3466 46.7981 23.8766 49.5147 22.2824 53.2224C20.6882 49.516 17.2183 46.7981 13.0739 46.2738C15.6066 45.6218 17.4836 43.3181 17.4836 40.584C17.4836 37.3443 14.8483 34.709 11.6086 34.709C8.36889 34.709 5.73359 37.3443 5.73359 40.584C5.73359 43.3181 7.61059 45.6218 10.1433 46.2738C4.43346 46.9958 0 51.886 0 57.7923V59.0599C0 59.5779 0.420447 59.9984 0.938497 59.9984H64.9778C65.4958 59.9984 65.9163 59.5779 65.9163 59.0599V57.7923C65.9163 51.886 61.4828 46.9945 55.7693 46.2725V46.2738ZM50.306 40.5827C50.306 38.3779 52.0991 36.5847 54.304 36.5847C56.5088 36.5847 58.302 38.3779 58.302 40.5827C58.302 42.7876 56.5088 44.5807 54.304 44.5807C52.0991 44.5807 50.306 42.7876 50.306 40.5827ZM28.9595 40.5827C28.9595 38.3779 30.7527 36.5847 32.9575 36.5847C35.1624 36.5847 36.9555 38.3779 36.9555 40.5827C36.9555 42.7876 35.1624 44.5807 32.9575 44.5807C30.7527 44.5807 28.9595 42.7876 28.9595 40.5827ZM7.61309 40.5827C7.61309 38.3779 9.40625 36.5847 11.6111 36.5847C13.8159 36.5847 15.6091 38.3779 15.6091 40.5827C15.6091 42.7876 13.8159 44.5807 11.6111 44.5807C9.40625 44.5807 7.61309 42.7876 7.61309 40.5827ZM1.87699 57.7923C1.87699 52.4241 6.24413 48.0582 11.6111 48.0582C16.9793 48.0582 21.3452 52.4253 21.3452 57.7923V58.1214H1.87699V57.7923ZM23.2234 57.7923C23.2234 52.4241 27.5906 48.0582 32.9575 48.0582C38.3257 48.0582 42.6916 52.4253 42.6916 57.7923V58.1214H23.2222V57.7923H23.2234ZM64.0393 58.1226H44.5699V57.7935C44.5699 52.4253 48.937 48.0594 54.304 48.0594C59.6709 48.0594 64.038 52.4266 64.038 57.7935V58.1226H64.0393Z" fill="#013570"/>
<path d="M7.52826 25.6335H29.0799L32.1444 30.9416C32.3121 31.2319 32.6224 31.4109 32.9578 31.4109C33.2931 31.4109 33.6035 31.2319 33.7711 30.9416L36.8357 25.6335H58.3873C60.9325 25.6335 63.0035 23.5625 63.0035 21.0173V4.61616C63.0035 2.07095 60.9325 0 58.3873 0H7.52826C4.98306 0 2.91211 2.07095 2.91211 4.61616V21.0186C2.91211 23.5638 4.98306 25.6347 7.52826 25.6347V25.6335ZM4.7891 4.61616C4.7891 3.1058 6.01791 1.87699 7.52826 1.87699H58.386C59.8964 1.87699 61.1252 3.1058 61.1252 4.61616V21.0186C61.1252 22.5289 59.8964 23.7577 58.386 23.7577H36.2926C35.9572 23.7577 35.6469 23.9367 35.4792 24.227L32.9565 28.5966L30.4339 24.227C30.2662 23.9367 29.9558 23.7577 29.6205 23.7577H7.52826C6.01791 23.7577 4.7891 22.5289 4.7891 21.0186V4.61616Z" fill="#013570"/>
<path d="M43.8588 14.3763L43.317 17.5346C43.2269 18.0639 43.4396 18.5895 43.875 18.9048C44.3093 19.2202 44.8749 19.2615 45.3504 19.0112L48.1859 17.5196L51.0214 19.0112C51.2279 19.1201 51.4518 19.1739 51.6746 19.1739C51.9636 19.1739 52.2514 19.0838 52.4967 18.9048C52.9309 18.5895 53.1449 18.0639 53.0535 17.5346L52.5117 14.3763L54.8067 12.1402C55.1908 11.7648 55.3272 11.2142 55.1608 10.7036C54.9944 10.1931 54.5614 9.8277 54.0296 9.75011L50.8587 9.28962L49.441 6.41657C49.2032 5.93481 48.7214 5.63574 48.1846 5.63574C47.6478 5.63574 47.166 5.93481 46.9283 6.41657L45.5105 9.28962L42.3397 9.75011C41.8078 9.8277 41.3749 10.1931 41.2085 10.7036C41.042 11.2142 41.1784 11.7648 41.5626 12.1402L43.8575 14.3763H43.8588ZM46.0286 11.1116C46.4853 11.0452 46.8795 10.7587 47.0834 10.3457L48.1859 8.11337L49.2883 10.3457C49.4923 10.7599 49.8864 11.0465 50.3432 11.1128L52.807 11.4707L51.0239 13.2088C50.6935 13.5304 50.5434 13.9946 50.621 14.4489L51.0414 16.9027L48.8378 15.744C48.4299 15.53 47.9419 15.5288 47.5339 15.744L45.3303 16.9027L45.7508 14.4489C45.8284 13.9934 45.6782 13.5304 45.3479 13.2088L43.5647 11.4707L46.0286 11.1128V11.1116Z" fill="#013570"/>
<path d="M28.6303 14.3763L28.0884 17.5346C27.9983 18.0639 28.2111 18.5895 28.6465 18.9048C29.0807 19.2202 29.6463 19.2615 30.1218 19.0112L32.9586 17.5196L35.7941 19.0112C36.0006 19.1201 36.2246 19.1739 36.4473 19.1739C36.7364 19.1739 37.0242 19.0838 37.2694 18.9048C37.7036 18.5895 37.9176 18.0639 37.8263 17.5346L37.2845 14.3763L39.5781 12.1402C39.9623 11.7648 40.0987 11.2154 39.9323 10.7036C39.7658 10.1931 39.3329 9.8277 38.8011 9.75011L35.6302 9.28962L34.2124 6.41657C33.9747 5.93481 33.4929 5.63574 32.9561 5.63574C32.4193 5.63574 31.9375 5.93481 31.6998 6.41657L30.282 9.28962L27.1111 9.75011C26.5793 9.8277 26.1464 10.1931 25.9799 10.7036C25.8135 11.2142 25.9499 11.7648 26.3341 12.1402L28.629 14.3763H28.6303ZM30.8013 11.1116C31.2581 11.0452 31.6522 10.7587 31.8562 10.3457L32.9586 8.11337L34.061 10.347C34.265 10.7599 34.6592 11.0465 35.1159 11.1128L37.5798 11.4707L35.7966 13.2088C35.4663 13.5304 35.3161 13.9934 35.3937 14.4489L35.8141 16.9027L33.6106 15.744C33.4066 15.6364 33.1826 15.5838 32.9586 15.5838C32.7346 15.5838 32.5106 15.6376 32.3067 15.7452L30.1031 16.904L30.5235 14.4489C30.6011 13.9946 30.4509 13.5304 30.1206 13.2088L28.3374 11.4707L30.8013 11.1128V11.1116Z" fill="#013570"/>
<path d="M13.403 14.3763L12.8612 17.5346C12.7698 18.0639 12.9838 18.5895 13.418 18.9048C13.8522 19.2202 14.4178 19.2615 14.8933 19.0112L17.7288 17.5196L20.5644 19.0112C20.7708 19.1201 20.9948 19.1739 21.2175 19.1739C21.5066 19.1739 21.7944 19.0838 22.0397 18.9048C22.4739 18.5895 22.6879 18.0639 22.5965 17.5346L22.0547 14.3763L24.3496 12.1402C24.7338 11.7648 24.8702 11.2142 24.7038 10.7036C24.5373 10.1931 24.1044 9.8277 23.5725 9.75011L20.4017 9.28962L18.9839 6.41657C18.7462 5.93481 18.2644 5.63574 17.7276 5.63574C17.1908 5.63574 16.709 5.93481 16.4713 6.41657L15.0535 9.28962L11.8826 9.75011C11.3508 9.8277 10.9179 10.1931 10.7514 10.7036C10.585 11.2142 10.7214 11.7648 11.1056 12.1402L13.4005 14.3763H13.403ZM15.5728 11.1116C16.0295 11.0452 16.4237 10.7587 16.6277 10.3457L17.7301 8.11337L18.8325 10.3457C19.0365 10.7599 19.4306 11.0465 19.8874 11.1128L22.3513 11.4707L20.5681 13.2088C20.2378 13.5304 20.0876 13.9946 20.1652 14.4489L20.5856 16.9027L18.382 15.744C18.1781 15.6364 17.9541 15.5826 17.7301 15.5826C17.5061 15.5826 17.2821 15.6364 17.0781 15.744L14.8746 16.9027L15.295 14.4489C15.3726 13.9946 15.2224 13.5304 14.8921 13.2088L13.1089 11.4707L15.5728 11.1128V11.1116Z" fill="#013570"/>
</g>
<defs>
<clipPath id="clip0_110_667">
<rect width="65.9163" height="60" fill="white"/>
</clipPath>
</defs>
</svg>
