<svg width="68" height="88" viewBox="0 0 68 88" fill="none" xmlns="http://www.w3.org/2000/svg">
<path d="M14.9831 70.5176C13.5614 73.6338 12.408 76.5239 11.5287 79.1924C11.2064 80.1606 11.0533 81.4219 11.065 82.9749C11.0766 84.7801 11.9399 85.9904 13.8224 85.9175C15.5168 85.846 17.2827 85.7411 19.12 85.5982C20.2282 85.5092 20.6584 84.9945 21.4589 84.2391C21.542 84.1589 21.6499 84.1108 21.7666 84.1021C22.2799 84.0539 22.6955 84.0714 23.0119 84.1531C23.5733 84.2931 25.2473 84.8312 28.0353 85.7629C28.4145 85.8883 28.7703 86.0764 29.0925 86.3156C29.8552 86.8916 30.5274 87.7563 31.465 87.9619C32.7263 88.236 33.5152 86.9572 34.1072 85.9962C34.1903 85.8621 34.3609 85.8081 34.5053 85.8708C35.7127 86.3783 36.9011 86.8959 38.1085 86.8755C38.5634 86.8668 39.3669 86.6787 40.5174 86.317C41.8706 85.8869 43.6248 85.3255 45.7742 84.6314C46.372 84.4404 47.1361 84.3208 47.6931 84.5351C49.2825 85.1417 50.3339 85.5063 50.8486 85.6288C52.7793 86.0866 54.1471 84.923 53.7256 82.9093C53.5857 82.237 53.2649 81.0151 52.7662 79.2434C52.7093 79.0349 52.7895 78.8132 52.9659 78.6907C54.5014 77.6146 55.8517 76.5924 57.0153 75.6227C58.491 74.392 59.1938 73.5492 59.0291 71.604C58.9401 70.5439 57.9354 69.5363 57.167 68.8494C55.4463 67.3198 53.6046 65.64 51.6419 63.8114C51.0528 63.2617 50.6562 62.6317 50.5249 61.821C50.3601 60.793 50.2231 59.571 50.1123 58.1551C50.1035 58.0749 50.0787 57.9991 50.0321 57.9335L49.1805 56.6751C49.0157 56.433 49.1003 56.102 49.3627 55.9722C52.6014 54.3463 56.5399 52.3355 61.1843 49.9397C61.4321 49.8143 61.7136 49.6087 61.9396 49.4235C62.0358 49.3433 62.1787 49.3433 62.275 49.4235C62.9297 49.9674 63.653 50.6761 64.6022 50.3378C67.2678 49.3841 67.5449 46.6748 67.5784 44.2309C67.5872 43.5222 67.5638 42.8952 67.504 42.3484C67.453 41.892 67.2649 41.4633 66.963 41.1206C66.1435 40.1888 65.2147 39.4947 65.1345 38.1415C65.1316 38.0876 65.0601 36.2823 64.9216 32.7244C64.8618 31.2035 64.7903 30.0836 64.7087 29.3633C64.6722 29.0322 64.5235 28.7275 64.2873 28.4942C63.5217 27.7388 62.8174 26.9704 62.1773 26.1844C61.8361 25.7659 61.7588 25.327 61.9177 24.84C62.6235 22.7241 63.1645 21.6276 63.0259 19.9069C62.9297 18.6791 62.7212 17.3464 62.3989 15.9057C62.1962 14.9855 61.7748 14.2565 61.1376 13.7213C60.5674 13.2401 59.118 12.3914 58.4866 11.9817C58.3583 11.8986 58.2708 11.7688 58.2387 11.6201C58.1673 11.2847 58.125 10.8939 58.1104 10.4462C58.09 9.72588 57.6467 9.17614 57.0649 8.68619C55.649 7.49631 54.6647 6.62723 54.1091 6.0775C53.4427 5.41986 52.7734 5.28862 52.0152 5.67358C47.9789 7.72087 43.2748 10.1998 37.9 13.1132C37.795 13.1701 37.6637 13.1016 37.6521 12.982L37.6404 12.8799C37.6375 12.8595 37.6404 12.8435 37.6462 12.8231C38.1129 11.448 38.8419 9.96939 39.8306 8.39455C40.5539 7.24113 39.4033 5.86314 38.1639 6.3006C35.8687 7.11281 34.4528 8.13208 31.8499 7.39715C31.742 7.36653 31.6589 7.27758 31.6371 7.16676C31.4694 6.32393 31.3775 5.3207 31.3615 4.16144C31.3469 3.03718 30.8176 2.35038 29.7779 2.10832C27.1094 1.48421 24.2732 0.832405 21.265 0.151433C20.428 -0.0395895 19.8214 -0.0541714 19.4481 0.106229C18.4026 0.550975 18.1036 1.29028 18.5571 2.32996C18.9873 3.31569 19.6056 4.59744 20.4134 6.1752C20.4732 6.29185 20.4222 6.43184 20.3026 6.48287C19.6041 6.78763 19.1856 7.25134 19.0471 7.87836C18.9611 8.25748 19.1462 8.84659 19.6056 9.64713C20.0984 10.5104 20.6934 11.6696 21.386 13.1191C21.4429 13.2357 21.3627 13.3699 21.2344 13.3786C19.2439 13.5099 19.3096 15.1955 18.9931 16.68C18.9727 16.7791 18.859 16.8287 18.7715 16.7733C17.3046 15.8736 15.7035 14.7537 14.2744 14.5743C12.3861 14.3352 10.1113 14.4912 9.08185 16.3664C8.39504 17.6161 8.05383 19.3309 8.48691 20.6987C8.83104 21.7836 8.88208 22.5521 8.6094 23.7259C8.40379 24.6198 8.19673 25.5064 7.98238 26.3798C7.82927 27.0258 7.62658 27.4734 6.94561 27.6863C4.68105 28.4009 4.43315 30.4175 6.88874 31.1437C7.06226 31.1947 7.16725 31.3683 7.13371 31.5476C6.82604 33.1283 6.3113 34.5894 5.58949 35.9367C5.45826 36.1817 5.22495 36.3611 4.95373 36.4238C3.2214 36.8277 2.19921 37.0756 1.88862 37.1645C0.27441 37.6312 0.277327 38.8648 0.764361 40.2865C1.12891 41.3539 1.60427 42.7071 1.2966 43.7555C1.10849 44.3942 0.786233 45.2225 0.33128 46.2388C0.0411008 46.8877 -0.125132 47.7962 0.115468 48.3007C1.00059 50.1526 1.78509 51.9345 2.46169 53.6464C2.55501 53.8826 2.5448 54.1509 2.43252 54.3813C2.42961 54.3901 2.23567 54.7605 1.85217 55.4925C1.30826 56.538 1.41617 57.4173 1.74134 58.7136C2.03444 59.8758 2.50106 60.3963 3.47513 60.9782C3.64573 61.0802 3.73177 61.2858 3.68073 61.4798C3.07996 63.7575 3.58157 67.0048 6.21797 67.7543C8.55107 68.4178 11.4149 69.2154 14.814 70.1501C14.9729 70.1924 15.0531 70.3689 14.9846 70.5176H14.9831ZM6.82604 65.0815C6.53002 64.959 6.33025 64.6776 6.31567 64.3582C6.26172 63.2383 6.35796 62.0747 6.60585 60.8615C6.64522 60.6647 6.59418 60.3716 6.4542 59.9793C6.41774 59.8743 6.36087 59.7737 6.29234 59.6891C5.62012 58.823 3.462 58.317 4.40399 56.414C4.6373 55.9474 5.2162 55.4458 5.40868 54.8596C5.58804 54.3157 5.4743 53.5837 5.06746 52.6636C4.93914 52.3705 4.29025 50.8584 3.12516 48.1272C2.94872 47.7174 2.91664 47.3383 3.03184 46.9913C3.35118 46.0143 4.20276 44.6246 4.07444 43.13C3.98549 42.1297 3.7726 40.9792 3.42846 39.6843C3.38909 39.5385 3.497 39.397 3.64719 39.3941C5.14475 39.3912 7.07684 38.961 7.89051 37.6137C7.94446 37.5247 8.37754 36.5594 9.19267 34.7119C9.83865 33.2449 9.93634 31.6614 9.48868 29.9611C9.44348 29.7876 9.46827 29.6053 9.56305 29.4537L10.2324 28.3513C10.2528 28.3177 10.2659 28.2798 10.2746 28.2434L11.5418 22.6789C11.6351 22.2633 11.6249 21.8303 11.5112 21.4205C11.2633 20.5427 11.1262 20.025 11.1044 19.8661C10.9935 19.1035 11.1014 18.4342 11.4237 17.8553C12.144 16.5706 14.5165 17.4878 15.4279 18.1148C16.6177 18.9343 17.9345 19.9682 19.3037 20.4158C20.7327 20.8795 21.5275 17.778 21.822 16.8068C21.8614 16.6814 22.0014 16.6187 22.1209 16.6756C22.9492 17.0708 23.6156 17.4018 24.1259 17.6672C25.1685 18.2081 26.4867 17.5709 25.8772 16.3198C23.9378 12.3404 22.8296 9.99127 22.554 9.27092C22.4972 9.12219 22.5686 8.9545 22.713 8.89179C23.741 8.44413 24.0122 7.65234 23.531 6.51641C23.181 5.69399 22.6561 4.6164 21.9649 3.28653C21.908 3.17862 22.0043 3.05322 22.1209 3.08093L28.1987 4.51578C28.5063 4.59015 28.7338 4.84679 28.7688 5.15884C28.8971 6.32393 29.0021 7.3155 29.0881 8.13791C29.1771 8.99533 29.6043 9.51007 30.4749 9.78129C31.9447 10.2348 33.3519 10.4054 34.6978 10.2887C34.8859 10.2712 35.3525 10.1181 35.6456 10.0919C35.7389 10.0831 35.8075 10.1808 35.7681 10.2654C34.9967 11.9365 33.8433 14.5831 35.9445 15.6913C36.8617 16.1754 37.7877 16.1725 38.7238 15.6796C43.4659 13.1847 47.9148 10.8414 52.075 8.65119C52.3491 8.50829 52.6787 8.54037 52.9178 8.73723L54.7639 10.2464C55.092 10.5148 55.2684 10.9274 55.2363 11.3518C55.1561 12.3739 55.5557 13.2051 56.4291 13.8438C58.0812 15.0483 59.0116 15.7292 59.2201 15.8853C59.9973 16.4583 60.095 18.5304 60.2204 19.4403C60.3633 20.4537 60.3195 21.0808 59.9842 22.0373C59.3805 23.7609 58.2956 25.5428 59.4548 26.9645C60.4741 28.2113 61.1551 29.0322 61.4963 29.423C62.2706 30.3111 62.2166 31.4937 62.2764 32.9577C62.3873 35.7632 62.5156 38.0759 62.6614 39.8899C62.6847 40.1917 62.8072 40.4761 63.0084 40.6992C63.6836 41.4589 64.1983 42.0859 64.5556 42.5788C65.2584 43.5558 64.8093 45.6833 64.487 46.774C64.4185 47.0044 64.1517 47.1123 63.9431 46.9898C62.5389 46.1776 61.7559 45.2662 60.3458 46.8761C59.8136 47.4827 59.1895 47.9697 58.4749 48.3313C58.176 48.483 54.7405 50.2168 48.1685 53.5341C46.7759 54.2399 45.3629 55.7666 45.9929 57.3881C46.3808 58.3855 47.4934 58.578 47.6363 59.9735C47.7821 61.3806 47.8958 62.3693 47.9775 62.9409C48.1627 64.1876 49.2359 65.3877 50.2668 66.2903C51.9496 67.7573 53.6279 69.2329 55.3019 70.7159C55.7263 71.0892 56.0573 71.534 56.2993 72.0487C56.3562 72.1741 56.3475 72.3199 56.2789 72.4395C56.1506 72.6582 55.8881 72.9295 55.493 73.2575C54.3191 74.2316 52.9776 75.2144 51.4655 76.2045C50.5249 76.8228 49.1644 77.9908 49.72 79.2376C50.21 80.3399 50.5978 81.4759 50.8822 82.6468C50.9026 82.7328 50.8457 82.8145 50.7597 82.8232C50.5599 82.8495 50.3412 82.8057 50.105 82.6978C48.1568 81.8171 46.7351 81.3913 44.7855 82.0489C43.2442 82.5666 41.3165 83.2082 38.9951 83.9679C38.2951 84.1983 37.6798 84.1808 37.149 83.9198C35.7564 83.233 34.4032 82.4164 33.3125 83.1994C32.7628 83.5946 32.1737 84.1312 31.5408 84.8064C31.4242 84.9289 31.2244 84.9172 31.1252 84.783C30.7038 84.2216 30.1366 83.7973 29.4279 83.5042C29.0152 83.3336 27.5746 82.8232 25.1044 81.9746C23.9087 81.5648 22.5234 81.4015 20.9515 81.4875C20.2165 81.5269 19.798 81.5444 19.3285 81.9483C18.7073 82.4806 18.5571 83.0872 17.392 83.1586C16.5463 83.2096 15.3608 83.2578 13.8428 83.3015C13.7495 83.3044 13.6693 83.2271 13.6693 83.1309C13.681 81.5444 13.9682 80.0264 14.5325 78.5712C15.2048 76.8374 15.9966 74.9461 16.905 72.9003C17.2725 72.072 17.6312 71.5311 18.0074 70.8413C18.0847 70.7013 18.1241 70.5424 18.127 70.3835C18.1561 68.8538 17.4722 67.9206 16.0738 67.5808C15.9572 67.5546 13.7218 66.9917 9.36619 65.8923C8.38921 65.6444 7.54055 65.3761 6.82604 65.0859V65.0815Z" fill="#013570"/>
</svg>
