<svg width="115" height="80" viewBox="0 0 115 80" fill="none" xmlns="http://www.w3.org/2000/svg">
<g clip-path="url(#clip0_118_975)">
<path d="M85.4197 9.87131V13.5884C85.4197 13.627 85.449 13.6599 85.4877 13.6635C90.3937 14.3159 94.9678 15.992 99.2085 18.6933C99.2571 18.724 99.3208 18.714 99.3573 18.6704L101.689 15.8053C101.724 15.7617 101.719 15.6973 101.675 15.6608C101.67 15.6572 101.665 15.6537 101.66 15.6501C101.225 15.4047 100.827 15.0721 100.74 14.5599C100.561 13.4947 101.295 12.7314 102.373 13.0118C102.516 13.049 102.717 13.1763 102.976 13.3924C103.894 14.1614 106.226 16.1008 109.971 19.2091C110.374 19.5439 110.618 19.7957 110.703 19.9631C111.028 20.6126 110.79 21.4439 110.136 21.7744C109.481 22.107 108.721 21.8037 108.298 21.1871C108.264 21.1391 108.199 21.1263 108.151 21.1592C108.143 21.1649 108.136 21.1713 108.13 21.1792L105.696 24.1694C105.672 24.1995 105.673 24.2431 105.698 24.2717C112.434 31.7681 115.374 40.9792 114.21 50.9773C113.031 61.1141 106.831 70.1807 98.1054 75.4094C97.6039 75.7084 96.7025 76.1734 95.4013 76.805C91.3573 78.768 87.0178 79.8261 82.3837 79.9791C67.2478 80.4799 53.5807 70.6078 49.3242 56.055C47.9771 51.448 47.6574 46.6951 48.3634 41.7962C50.4452 27.3636 62.3533 15.5349 76.8574 13.7007C76.9397 13.6907 77.0019 13.6206 77.0026 13.5362V9.80335C77.0026 9.76687 76.9733 9.73754 76.9368 9.73754C75.8759 9.73396 75.1391 9.73611 74.7256 9.74541C73.1711 9.77831 71.907 9.24107 71.2825 7.84538C70.8054 6.77661 71.0643 4.92237 71.0121 3.81498C70.9348 2.17749 71.4027 0.957783 72.8835 0.263872C73.3077 0.0657145 73.9609 -0.0222762 74.8436 0.00061565C75.1927 0.00991548 79.6924 0.0149231 88.3427 0.0163538C89.8621 0.0184999 91.0647 1.14521 91.393 2.65536C91.4331 2.83849 91.4546 3.44012 91.4567 4.46096C91.4596 5.14271 91.4546 5.87167 91.4431 6.64713C91.4138 8.5958 89.8078 9.78833 87.9035 9.74183C87.6481 9.73539 86.8626 9.73539 85.547 9.74183C85.4776 9.74183 85.4211 9.79906 85.4211 9.86917L85.4197 9.87131ZM88.8091 3.28131C88.8091 2.91218 88.5087 2.61315 88.1388 2.61387L74.3057 2.63819C73.9365 2.63819 73.6375 2.93865 73.6382 3.30849L73.644 6.4597C73.644 6.82884 73.9444 7.12786 74.3143 7.12715L88.1474 7.10282C88.5165 7.10282 88.8156 6.80237 88.8148 6.43252L88.8091 3.28131ZM82.7649 9.7962C82.7649 9.7683 82.7428 9.74612 82.7149 9.74612H79.6838C79.6559 9.74612 79.6338 9.7683 79.6338 9.7962V13.3301C79.6338 13.358 79.6559 13.3802 79.6838 13.3802H82.7149C82.7428 13.3802 82.7649 13.358 82.7649 13.3301V9.7962ZM82.3615 16.0815C65.463 15.4619 51.2607 28.6741 50.6405 45.592C50.0202 62.5098 63.216 76.7271 80.1152 77.3466C97.0137 77.9661 111.216 64.7539 111.836 47.8361C112.456 30.9183 99.2607 16.701 82.3615 16.0815ZM106.161 19.4974C106.188 19.4652 106.183 19.4179 106.151 19.3915L103.884 17.5093C103.852 17.4829 103.805 17.4872 103.778 17.5193L101.464 20.3064C101.438 20.3386 101.442 20.3858 101.474 20.4123L103.741 22.2945C103.773 22.3209 103.82 22.3166 103.847 22.2844L106.161 19.4974Z" fill="#013570"/>
<path d="M53.6965 18.2979H28.8095C28.0944 18.2979 27.5146 18.8776 27.5146 19.5927V19.6284C27.5146 20.3436 28.0944 20.9233 28.8095 20.9233H53.6965C54.4116 20.9233 54.9914 20.3436 54.9914 19.6284V19.5927C54.9914 18.8776 54.4116 18.2979 53.6965 18.2979Z" fill="#013570"/>
<path d="M108.882 46.7069C108.882 61.9736 96.5058 74.3502 81.2391 74.3502C65.9723 74.3502 53.5957 61.9736 53.5957 46.7069C53.5957 31.4401 65.9723 19.0635 81.2391 19.0635C96.5058 19.0635 108.882 31.4401 108.882 46.7069ZM106.203 45.1237C105.951 41.1828 104.858 37.5587 102.925 34.2522C98.6641 26.9626 91.0268 22.1417 82.5518 21.7046C82.5275 21.7039 82.5067 21.7218 82.5053 21.7454V21.7476C82.5167 23.7556 82.5175 25.0712 82.5074 25.695C82.5039 25.9475 82.4059 26.17 82.2134 26.3617C81.3822 27.1872 79.9185 26.7931 79.8842 25.5827C79.8556 24.6119 79.8556 23.3607 79.8842 21.8284C79.8856 21.7526 79.8248 21.6903 79.749 21.6889C79.7447 21.6889 79.7411 21.6889 79.7368 21.6889C67.1348 22.493 57.0753 32.5468 56.3055 45.1795C56.3034 45.2182 56.3327 45.2511 56.3713 45.2532H56.3756C57.1969 45.2597 58.4295 45.2654 60.0734 45.2704C61.8926 45.2761 61.9391 47.8586 59.9689 47.8701C59.0654 47.8751 57.8801 47.8779 56.4121 47.8779C56.3542 47.8779 56.3077 47.9244 56.3077 47.9824V47.9845C56.3127 48.3258 56.3306 48.6405 56.3599 48.9281C56.9193 54.4143 58.9231 59.1329 62.3719 63.0839C66.6691 68.0056 72.5495 71.0538 79.0722 71.6805C79.3634 71.7077 79.6023 71.7213 79.7897 71.7213C79.8534 71.7205 79.9049 71.6698 79.9056 71.6075C79.9106 70.9823 79.9085 69.8599 79.8978 68.2403C79.8942 67.7967 79.9471 67.4705 80.058 67.2602C80.5223 66.3767 81.7148 66.3302 82.2749 67.0492C82.4667 67.2938 82.5547 67.673 82.5382 68.1859C82.5089 69.0586 82.5053 70.2082 82.5282 71.6347C82.5282 71.6862 82.5697 71.7277 82.6205 71.7277C82.6226 71.7277 82.6262 71.7277 82.6262 71.7277C87.4821 71.4466 91.881 69.8749 95.8234 67.0127C101.893 62.6074 105.827 55.5417 106.21 48.016C106.212 47.9616 106.17 47.9158 106.115 47.9137H106.111C103.942 47.9073 102.855 47.9037 102.85 47.9037C102.067 47.9037 101.531 47.8028 101.237 47.0645C101.044 46.5738 101.122 46.1167 101.471 45.6939C101.821 45.2725 102.245 45.2554 102.792 45.2647C103.763 45.2811 104.859 45.279 106.08 45.2568C106.149 45.2547 106.203 45.1967 106.202 45.1273V45.123L106.203 45.1237Z" fill="#013570"/>
<path d="M18.0111 28.9922H14.0215C13.3317 28.9922 12.7725 29.5514 12.7725 30.2412V30.345C12.7725 31.0348 13.3317 31.594 14.0215 31.594H18.0111C18.701 31.594 19.2602 31.0348 19.2602 30.345V30.2412C19.2602 29.5514 18.701 28.9922 18.0111 28.9922Z" fill="#013570"/>
<path d="M45.3544 28.9805H24.384C23.6709 28.9805 23.0928 29.5586 23.0928 30.2717V30.3068C23.0928 31.0199 23.6709 31.598 24.384 31.598H45.3544C46.0676 31.598 46.6457 31.0199 46.6457 30.3068V30.2717C46.6457 29.5586 46.0676 28.9805 45.3544 28.9805Z" fill="#013570"/>
<path d="M83.0431 42.4304C83.1061 42.4511 83.1762 42.4325 83.2213 42.3817C85.3616 39.9974 87.7989 37.3384 90.5324 34.4039C90.9294 33.9775 91.2248 33.7372 91.4194 33.6828C92.7128 33.323 93.8109 34.7187 92.8287 35.7781C90.3185 38.4844 87.7753 41.2865 85.2007 44.183C85.152 44.2388 85.1435 44.3189 85.1792 44.384C87.2474 48.0374 83.6018 52.3733 79.6601 50.8596C76.8494 49.783 75.697 46.3012 77.7079 43.8232C79.0478 42.1721 80.9979 41.7701 83.0431 42.4297V42.4304ZM81.4629 44.7582C80.4492 44.6466 79.5349 45.3984 79.4198 46.4386C79.3046 47.4787 80.0336 48.4123 81.0465 48.5239C82.0602 48.6355 82.9745 47.8836 83.0896 46.8435C83.2041 45.8033 82.4758 44.8698 81.4629 44.7582Z" fill="#013570"/>
<path d="M41.2817 40.5537H1.31388C0.587703 40.5537 -0.000976562 41.1424 -0.000976562 41.8686V41.8907C-0.000976562 42.6169 0.587703 43.2056 1.31388 43.2056H41.2817C42.0079 43.2056 42.5965 42.6169 42.5965 41.8907V41.8686C42.5965 41.1424 42.0079 40.5537 41.2817 40.5537Z" fill="#013570"/>
<path d="M11.4741 52.4509L15.9201 52.4432C16.6105 52.442 17.1716 53.0011 17.1728 53.6915L17.173 53.7923C17.1742 54.4827 16.615 55.0438 15.9247 55.045L11.4786 55.0527C10.7883 55.0539 10.2272 54.4948 10.226 53.8045L10.2258 53.7036C10.2246 53.0133 10.7838 52.4521 11.4741 52.4509Z" fill="#013570"/>
<path d="M41.9336 52.4541H22.3166C21.6035 52.4541 21.0254 53.0322 21.0254 53.7453V53.784C21.0254 54.4971 21.6035 55.0752 22.3166 55.0752H41.9336C42.6467 55.0752 43.2248 54.4971 43.2248 53.784V53.7453C43.2248 53.0322 42.6467 52.4541 41.9336 52.4541Z" fill="#013570"/>
<path d="M46.8983 63.8662H25.3599C24.6531 63.8662 24.0801 64.4392 24.0801 65.146V65.1997C24.0801 65.9065 24.6531 66.4795 25.3599 66.4795H46.8983C47.6051 66.4795 48.1781 65.9065 48.1781 65.1997V65.146C48.1781 64.4392 47.6051 63.8662 46.8983 63.8662Z" fill="#013570"/>
</g>
<defs>
<clipPath id="clip0_118_975">
<rect width="114.459" height="80" fill="white"/>
</clipPath>
</defs>
</svg>
