<svg width="100" height="80" viewBox="0 0 100 80" fill="none" xmlns="http://www.w3.org/2000/svg">
<g clip-path="url(#clip0_118_988)">
<path d="M33.4746 46.5958C34.911 46.741 37.1099 47.3477 40.0814 48.4109C46.1437 50.5708 52.7427 52.4377 59.8862 54.0012C60.2648 54.0868 60.9571 54.2994 61.9528 54.6469C64.245 55.4455 66.0393 57.3461 63.8197 59.5838C62.4299 60.9866 60.6019 61.5311 58.3227 61.2252C52.7064 60.4732 46.5067 59.5112 39.7132 58.334C38.9094 58.2018 38.1315 58.6867 37.9189 59.4697L37.9111 59.4957C37.7062 60.2347 38.1911 60.9788 38.9483 61.0981C44.4971 61.9434 49.7427 62.7006 54.6744 63.3851C57.3063 63.7507 59.1343 63.8959 60.1637 63.8311C64.1179 63.564 66.4983 61.5908 67.3021 57.9088C67.3617 57.6158 67.5069 57.3565 67.7273 57.1568C68.3781 56.5657 69.7291 56.1871 70.5795 55.4948C75.1846 51.7869 79.1803 48.4627 82.5563 45.5327C86.2591 42.3149 88.8961 40.1368 90.4855 38.9985C93.5686 36.7789 98.5729 40.8395 95.9229 43.9354C89.5365 51.3798 82.7845 57.8595 75.545 65.4283C74.8008 66.2062 73.9633 66.8104 73.0402 67.2434C69.9235 68.698 62.9122 71.6773 51.9907 76.189C48.594 77.5918 47.2716 77.4181 43.7763 76.1294C39.0234 74.3688 33.8324 72.3411 28.2187 70.036C25.9317 69.0999 25.0216 69.2529 22.7761 70.1501C17.7976 72.144 13.0007 74.1432 8.38007 76.145C7.73443 76.4302 7.54255 77.2625 8.00669 77.7941L8.01965 77.807C8.56417 78.4397 9.45614 78.6523 10.2262 78.3308C17.2635 75.4267 21.5574 73.6376 23.108 72.966C24.6378 72.3074 25.8461 72.1622 26.7381 72.5278C33.5627 75.3204 39.4513 77.527 44.4116 79.1398C46.5456 79.8373 48.148 80.1096 49.2033 79.9566C50.5802 79.7647 52.7245 79.0257 55.6364 77.7422C62.1499 74.877 68.5311 72.1129 74.7775 69.4344C75.4698 69.1362 76.0947 68.711 76.6185 68.1717C82.1285 62.5346 88.5564 55.8085 95.8996 48.0012C97.6006 46.1991 98.5859 44.8378 98.8582 43.9147C100.873 37.129 92.9488 33.0606 87.8511 37.5205C82.5615 42.1463 75.9599 47.7159 68.0462 54.2294C67.6599 54.5406 67.1024 54.5406 66.7238 54.2164L65.3003 52.9874C65.2744 52.9615 65.2407 52.9407 65.207 52.92C63.7523 52.168 62.1291 51.6313 60.3426 51.2994C54.1481 50.1429 48.0728 48.123 40.1851 45.5897C38.6034 45.0841 35.3985 44.1351 34.6751 43.1913C31.1461 38.5862 29.0458 34.3442 28.3872 30.4703C27.4356 24.9007 27.2178 19.0977 27.7156 13.0639C27.7364 12.859 27.8894 12.6853 28.0942 12.6386C33.4253 11.4744 38.6941 9.43636 43.9111 6.51153C46.1385 5.26173 47.7928 4.27122 48.8688 3.54002C49.2474 3.28072 49.7453 3.27294 50.1316 3.52705C56.7514 7.76651 63.3504 11.1166 70.9996 12.6646C71.3315 12.732 71.5778 12.9965 71.6245 13.3284C72.4361 19.3492 72.0497 25.4581 70.4758 31.6579C68.8008 38.2387 64.0557 43.6606 59.4299 48.4601C59.0254 48.8776 59.2562 49.5777 59.8292 49.6762L60.3867 49.7696C60.9442 49.8681 61.5172 49.7151 61.9476 49.3443C68.4533 43.7669 72.4076 36.81 73.8103 28.4763C74.762 22.8341 74.8994 17.0259 74.2356 11.057C74.1889 10.6239 73.8622 10.2661 73.4318 10.1857C67.7221 9.11484 62.347 7.18828 57.3089 4.41643C55.3486 3.33258 53.0357 1.95054 50.3624 0.262539C49.8049 -0.090101 49.0996 -0.090101 48.5421 0.270318C41.4167 4.86242 34.325 8.47957 25.9835 10.2531C25.4313 10.3724 25.0138 10.8314 24.9593 11.3966C24.4148 16.8988 24.4874 22.5281 25.1797 28.2793C25.6646 32.3139 26.9611 36.0633 29.0666 39.5326C29.5981 40.409 30.0026 40.995 30.2826 41.2932C31.1279 42.1904 31.5791 42.6882 31.6388 42.8023C31.7373 43.002 31.605 43.2405 31.3872 43.2613C31.1824 43.282 29.9793 43.2613 27.7779 43.2016C25.6257 43.142 23.5099 43.588 21.2437 44.5629C16.0863 46.7955 9.32131 49.5466 0.938332 52.8111C0.240831 53.0833 -0.137738 53.8275 0.0411744 54.5458L0.0541391 54.6054C0.227866 55.2821 0.959076 55.6555 1.6099 55.3962C8.33599 52.7385 15.2669 50.353 21.8141 47.2674C25.3561 45.6053 29.5825 46.1913 33.472 46.5958H33.4746Z" fill="#013570"/>
<path d="M63.1516 19.1464L63.1127 19.079C62.6797 18.2882 61.6037 18.143 60.9788 18.7938L47.3943 32.8164C47.0547 33.1613 46.4972 33.1691 46.1523 32.8242L41.0287 27.6461C40.2897 26.9019 39.1203 26.7878 38.2568 27.379L38.1583 27.4464C37.3882 27.965 37.2871 29.0541 37.9457 29.7127L46.3598 38.0879C46.5127 38.2408 46.7591 38.2408 46.9121 38.0956C52.2613 33.0783 57.5535 27.6409 62.7834 21.7912C63.4291 21.0678 63.5821 20.0228 63.1568 19.1464H63.1516Z" fill="#013570"/>
</g>
<defs>
<clipPath id="clip0_118_988">
<rect width="99.1748" height="80" fill="white"/>
</clipPath>
</defs>
</svg>
