<svg width="121" height="28" viewBox="0 0 121 28" fill="none" xmlns="http://www.w3.org/2000/svg">
<g clip-path="url(#clip0_1174_12872)">
<path fill-rule="evenodd" clip-rule="evenodd" d="M4.73055 9.37567L9.29746 9.39688L9.26805 15.6035C9.25965 17.2623 7.911 18.6114 6.26826 18.6072L4.68854 18.5987C2.16771 18.586 0.130032 16.5114 0.142636 13.966C0.15524 11.4205 2.20972 9.36294 4.73055 9.37567Z" fill="#003870"/>
<path fill-rule="evenodd" clip-rule="evenodd" d="M17.4155 9.38844C18.1172 8.67995 18.3944 7.73813 18.3944 6.71571V4.77692C18.3944 2.23147 16.3484 0.165405 13.8275 0.165405C11.3067 0.165405 9.26063 2.23147 9.26063 4.77692V15.5951C9.26063 17.2539 7.91618 18.6115 6.27344 18.6115H6.61375C7.72712 18.6115 8.68924 18.2084 9.4791 17.4109L17.4113 9.38844H17.4155Z" fill="#5799F1"/>
<path fill-rule="evenodd" clip-rule="evenodd" d="M22.9653 18.6115H18.3984V12.1375C18.3984 10.6272 19.6252 9.38843 21.1209 9.38843H22.9653C25.4862 9.38843 27.5323 11.4545 27.5323 13.9999C27.5323 16.5454 25.4862 18.6115 22.9653 18.6115Z" fill="#5799F1"/>
<path fill-rule="evenodd" clip-rule="evenodd" d="M10.2426 18.6115C9.54096 19.3199 9.26367 20.2575 9.26367 21.2799V23.223C9.26367 25.7684 11.3097 27.8345 13.8306 27.8345C16.3514 27.8345 18.3975 25.7684 18.3975 23.223V12.4048C18.3975 10.746 19.7419 9.38843 21.3847 9.38843H21.0444C19.9268 9.38843 18.9647 9.79146 18.1748 10.589L10.2426 18.6115Z" fill="#003870"/>
<path d="M13.7843 25.3866C14.6219 25.3866 15.301 24.701 15.301 23.8551C15.301 23.0093 14.6219 22.3236 13.7843 22.3236C12.9466 22.3236 12.2676 23.0093 12.2676 23.8551C12.2676 24.701 12.9466 25.3866 13.7843 25.3866Z" fill="white"/>
<path d="M23.5616 15.5314C24.3993 15.5314 25.0783 14.8457 25.0783 13.9999C25.0783 13.1541 24.3993 12.4684 23.5616 12.4684C22.724 12.4684 22.0449 13.1541 22.0449 13.9999C22.0449 14.8457 22.724 15.5314 23.5616 15.5314Z" fill="white"/>
<path d="M48.2905 7.81026C48.6056 7.81026 48.8619 7.72116 49.0552 7.53874C49.2485 7.35631 49.3451 7.12298 49.3451 6.83025C49.3451 6.53753 49.2485 6.27874 49.0552 6.08783C48.8619 5.90116 48.6056 5.80359 48.2905 5.80359H38.9466C38.6441 5.80359 38.3879 5.90541 38.182 6.1048C37.9761 6.30419 37.8711 6.56723 37.8711 6.88541V21.0169C37.8711 21.3224 37.9761 21.5812 38.182 21.789C38.3879 21.9969 38.6441 22.103 38.9466 22.103H48.2905C48.6056 22.103 48.8619 22.0096 49.0552 21.823C49.2485 21.6363 49.3451 21.386 49.3451 21.0806C49.3451 20.7751 49.2485 20.5503 49.0552 20.3721C48.8619 20.1896 48.6056 20.1006 48.2905 20.1006H40.0222V14.8824H45.9546C46.2697 14.8824 46.526 14.789 46.7192 14.5981C46.9125 14.4115 47.0091 14.1696 47.0091 13.8769C47.0091 13.5842 46.9125 13.3466 46.7192 13.1557C46.526 12.969 46.2697 12.8715 45.9546 12.8715H40.0222V7.79753H48.2905V7.81026Z" fill="#003366"/>
<path d="M56.1643 20.0242H55.6475C55.345 20.0242 55.0971 19.8588 54.9038 19.5236C54.7106 19.1885 54.614 18.7642 54.614 18.2509V6.8515C54.614 6.54604 54.5173 6.29574 54.3241 6.10059C54.1308 5.90544 53.8829 5.80786 53.5804 5.80786C53.2779 5.80786 53.03 5.90544 52.8368 6.10059C52.6435 6.29574 52.5469 6.54604 52.5469 6.8515V18.2509C52.5469 19.0018 52.6771 19.6679 52.9376 20.2448C53.1981 20.8218 53.5636 21.28 54.0342 21.6109C54.5005 21.946 55.0383 22.1115 55.6475 22.1115H55.6895C56.1054 22.1115 56.4416 22.0139 56.702 21.8188C56.9625 21.6236 57.0928 21.3733 57.0928 21.0679C57.0928 20.7624 57.0045 20.5121 56.8323 20.317C56.66 20.1218 56.4374 20.0242 56.1601 20.0242H56.1643Z" fill="#003366"/>
<path d="M61.2522 6.07935C60.8782 6.07935 60.5589 6.2151 60.2901 6.48662C60.0212 6.75813 59.8867 7.08056 59.8867 7.45813C59.8867 7.83571 60.0212 8.15813 60.2901 8.42965C60.5589 8.70116 60.8782 8.83692 61.2522 8.83692C61.6261 8.83692 61.9454 8.70116 62.2143 8.42965C62.4832 8.15813 62.6176 7.83571 62.6176 7.45813C62.6176 7.08056 62.4832 6.75813 62.2143 6.48662C61.9454 6.2151 61.6261 6.07935 61.2522 6.07935Z" fill="#003366"/>
<path d="M61.2518 10.6909C60.9493 10.6909 60.6972 10.7885 60.4956 10.9836C60.2939 11.1788 60.1973 11.4376 60.1973 11.7558V21.0467C60.1973 21.3521 60.2981 21.6067 60.4956 21.8103C60.6972 22.014 60.9451 22.1115 61.2518 22.1115C61.5585 22.1115 61.8232 22.0097 62.0165 21.8103C62.2097 21.6067 62.3064 21.3564 62.3064 21.0467V11.7558C62.3064 11.4376 62.2097 11.1788 62.0165 10.9836C61.8232 10.7885 61.5669 10.6909 61.2518 10.6909Z" fill="#003366"/>
<path d="M71.8773 20.0242H71.1756C70.7345 20.0242 70.3606 19.8375 70.0581 19.4599C69.7556 19.0824 69.6043 18.6199 69.6043 18.0599V12.9054H71.3605C71.6504 12.9054 71.8857 12.8205 72.0621 12.6551C72.2428 12.4896 72.331 12.2775 72.331 12.0272C72.331 11.7472 72.2428 11.5266 72.0621 11.3611C71.8815 11.1957 71.6462 11.1108 71.3605 11.1108H69.6043V8.10296C69.6043 7.79751 69.5077 7.54721 69.3144 7.35205C69.1211 7.1569 68.8733 7.05933 68.5708 7.05933C68.2683 7.05933 68.0204 7.1569 67.8271 7.35205C67.6339 7.54721 67.5372 7.79751 67.5372 8.10296V11.1108H66.5877C66.2978 11.1108 66.0625 11.1957 65.8861 11.3611C65.7054 11.5266 65.6172 11.7514 65.6172 12.0272C65.6172 12.2775 65.7054 12.4854 65.8861 12.6551C66.0667 12.8205 66.2978 12.9054 66.5877 12.9054H67.5372V18.0599C67.5372 18.8236 67.6969 19.5151 68.012 20.126C68.3271 20.7369 68.764 21.2205 69.3144 21.5769C69.8648 21.9333 70.4866 22.1072 71.1756 22.1072H71.5496C71.9067 22.1072 72.2008 22.0096 72.4276 21.8145C72.6545 21.6193 72.768 21.369 72.768 21.0636C72.768 20.7581 72.6839 20.5078 72.5117 20.3127C72.3394 20.1175 72.1293 20.0199 71.8815 20.0199L71.8773 20.0242Z" fill="#003366"/>
<path d="M84.3517 11.2042C83.5996 10.7927 82.751 10.5891 81.7972 10.5891C80.8435 10.5891 80.0663 10.7927 79.3394 11.1957C78.9403 11.4163 78.5916 11.6836 78.2849 11.9891V6.87271C78.2849 6.55453 78.1882 6.29574 77.995 6.10059C77.8017 5.90544 77.5454 5.80786 77.2303 5.80786C76.9152 5.80786 76.6757 5.90544 76.4741 6.10059C76.2724 6.29574 76.1758 6.55453 76.1758 6.87271V21.0679C76.1758 21.3733 76.2766 21.6279 76.4741 21.8315C76.6757 22.0351 76.9236 22.1327 77.2303 22.1327C77.537 22.1327 77.8017 22.0309 77.995 21.8315C78.1882 21.6279 78.2849 21.3776 78.2849 21.0679V15.1794C78.2849 14.666 78.4235 14.2079 78.6966 13.8133C78.9739 13.4188 79.3436 13.1006 79.8142 12.863C80.2847 12.6254 80.8057 12.5067 81.3855 12.5067C82.0199 12.5067 82.5829 12.6297 83.0703 12.8715C83.5576 13.1133 83.9484 13.4866 84.2382 13.9873C84.5281 14.4879 84.671 15.137 84.671 15.9303V21.0636C84.671 21.3691 84.7718 21.6236 84.9693 21.8273C85.171 22.0309 85.4188 22.1285 85.7255 22.1285C86.0322 22.1285 86.2801 22.0266 86.4818 21.8273C86.6835 21.6236 86.7801 21.3733 86.7801 21.0636V15.9303C86.7801 14.7763 86.5616 13.8006 86.1289 13.0073C85.6961 12.2139 85.0995 11.6115 84.3517 11.2V11.2042Z" fill="#003366"/>
<path d="M99.1432 11.3696C98.2903 10.8605 97.324 10.606 96.2484 10.606C95.1729 10.606 94.2066 10.8605 93.3453 11.3696C92.484 11.8787 91.8034 12.5702 91.2992 13.4484C90.795 14.3266 90.543 15.315 90.543 16.4138C90.543 17.5126 90.774 18.4969 91.2362 19.3666C91.6983 20.2363 92.3286 20.9235 93.1268 21.4326C93.9251 21.9417 94.8284 22.1963 95.8367 22.1963C96.845 22.1963 97.7441 21.9417 98.5466 21.4326C99.0424 21.1187 99.4625 20.7284 99.828 20.2744V21.0678C99.828 21.3732 99.9289 21.6278 100.126 21.8314C100.328 22.035 100.576 22.1326 100.883 22.1326C101.189 22.1326 101.437 22.0308 101.639 21.8314C101.841 21.632 101.937 21.3775 101.937 21.0678V16.4138C101.937 15.315 101.685 14.3266 101.181 13.4484C100.677 12.5702 100 11.8787 99.1432 11.3696ZM99.4331 18.4035C99.1138 18.9932 98.6811 19.4599 98.1307 19.8035C97.5803 20.1429 96.9543 20.3169 96.2484 20.3169C95.5426 20.3169 94.9376 20.1472 94.3788 19.8035C93.8201 19.4641 93.3789 18.9975 93.0554 18.4035C92.7319 17.8138 92.568 17.1478 92.568 16.4096C92.568 15.6714 92.7319 14.9884 93.0554 14.3944C93.3789 13.8047 93.8201 13.3381 94.3788 12.9944C94.9376 12.655 95.5594 12.4811 96.2484 12.4811C96.9375 12.4811 97.5761 12.6508 98.1307 12.9944C98.6811 13.3338 99.1138 13.8005 99.4331 14.3944C99.7482 14.9841 99.9079 15.6587 99.9079 16.4096C99.9079 17.1605 99.7482 17.8096 99.4331 18.4035Z" fill="#003366"/>
<path d="M107.164 6.07935C106.79 6.07935 106.471 6.2151 106.202 6.48662C105.933 6.75813 105.799 7.08056 105.799 7.45813C105.799 7.83571 105.933 8.15813 106.202 8.42965C106.471 8.70116 106.79 8.83692 107.164 8.83692C107.538 8.83692 107.857 8.70116 108.126 8.42965C108.395 8.15813 108.53 7.83571 108.53 7.45813C108.53 7.08056 108.395 6.75813 108.126 6.48662C107.857 6.2151 107.538 6.07935 107.164 6.07935Z" fill="#003366"/>
<path d="M107.164 10.6909C106.861 10.6909 106.609 10.7885 106.408 10.9836C106.206 11.1788 106.109 11.4376 106.109 11.7558V21.0467C106.109 21.3521 106.21 21.6067 106.408 21.8103C106.609 22.014 106.857 22.1115 107.164 22.1115C107.471 22.1115 107.735 22.0097 107.929 21.8103C108.122 21.6067 108.218 21.3564 108.218 21.0467V11.7558C108.218 11.4376 108.122 11.1788 107.929 10.9836C107.735 10.7885 107.479 10.6909 107.164 10.6909Z" fill="#003366"/>
<path d="M120.361 10.9751C119.953 10.7036 119.336 10.5679 118.512 10.5679C117.689 10.5679 116.928 10.763 116.239 11.1533C115.773 11.4164 115.378 11.7473 115.042 12.1333V11.7345C115.042 11.3867 114.953 11.1279 114.781 10.9539C114.609 10.78 114.348 10.6909 114.008 10.6909C113.668 10.6909 113.424 10.78 113.244 10.9624C113.063 11.1448 112.975 11.3994 112.975 11.7345V21.0636C112.975 21.4115 113.063 21.6745 113.244 21.8485C113.424 22.0224 113.676 22.1073 114.008 22.1073C114.34 22.1073 114.609 22.0182 114.781 21.8357C114.953 21.6533 115.042 21.3988 115.042 21.0636V14.9673C115.042 14.3267 115.243 13.7964 115.651 13.3806C116.058 12.9606 116.613 12.6764 117.315 12.5236C118.016 12.3709 118.81 12.3836 119.693 12.5661C119.873 12.6085 120.037 12.617 120.188 12.5873C120.34 12.5618 120.474 12.4939 120.592 12.3879C120.709 12.2818 120.789 12.1333 120.831 11.9382C120.928 11.5606 120.772 11.2382 120.365 10.9667L120.361 10.9751Z" fill="#003366"/>
</g>
<defs>
<clipPath id="clip0_1174_12872">
<rect width="121" height="28" fill="white"/>
</clipPath>
</defs>
</svg>
