<svg xmlns="http://www.w3.org/2000/svg" width="159.586" height="36.196" viewBox="0 0 159.586 36.196">
  <g id="Elithair-Logo-Primary" transform="translate(-4.44 -4)">
    <g id="Group_33414" data-name="Group 33414" transform="translate(4.44 4)">
      <path id="XMLID_00000163782321385209262930000010208031974037011335_" d="M10.473,18.4h6.033v8.119a3.958,3.958,0,0,1-3.946,3.946H10.473A6.029,6.029,0,0,1,4.44,24.433h0A6.029,6.029,0,0,1,10.473,18.4Z" transform="translate(-4.44 -6.335)" fill="#5799f1" fill-rule="evenodd"/>
      <path id="XMLID_00000142176504312425265560000001353172866052860800_" d="M28.843,16.065a4.787,4.787,0,0,0,1.3-3.494V10.033A6.029,6.029,0,0,0,24.109,4h0a6.029,6.029,0,0,0-6.033,6.033V24.184A3.958,3.958,0,0,1,14.13,28.13h.452a5.2,5.2,0,0,0,3.787-1.567Z" transform="translate(-6.011 -4)" fill="#fff" fill-rule="evenodd"/>
      <path id="XMLID_00000014609577180021743440000000434925767378694837_" d="M39.273,30.465H33.24V21.994A3.6,3.6,0,0,1,36.834,18.4h2.438a6.029,6.029,0,0,1,6.033,6.033h0A6.029,6.029,0,0,1,39.273,30.465Z" transform="translate(-9.11 -6.335)" fill="#fff" fill-rule="evenodd"/>
      <path id="XMLID_00000125587446740790833010000014855374629113629350_" d="M20.139,30.465a4.775,4.775,0,0,0-1.3,3.494V36.5a6.029,6.029,0,0,0,6.033,6.033h0A6.029,6.029,0,0,0,30.905,36.5V22.346A3.958,3.958,0,0,1,34.852,18.4H34.4a5.181,5.181,0,0,0-3.787,1.567Z" transform="translate(-6.775 -6.335)" fill="#5799f1" fill-rule="evenodd"/>
      <circle id="Ellipse_126" data-name="Ellipse 126" cx="2.002" cy="2.002" r="2.002" transform="translate(16.079 28.948)" fill="#003870"/>
      <circle id="Ellipse_127" data-name="Ellipse 127" cx="2.002" cy="2.002" r="2.002" transform="translate(28.948 16.095)" fill="#003870"/>
    </g>
    <g id="Group_33415" data-name="Group 33415" transform="translate(54.41 11.373)">
      <path id="Path_43901" data-name="Path 43901" d="M77.838,15.433a1.45,1.45,0,0,0,1.014-.352,1.218,1.218,0,0,0,.385-.93,1.281,1.281,0,0,0-.385-.972,1.408,1.408,0,0,0-1.014-.369H65.5a1.424,1.424,0,0,0-1.014.394,1.332,1.332,0,0,0-.4,1.022V32.718A1.4,1.4,0,0,0,65.5,34.142H77.838a1.422,1.422,0,0,0,1.014-.369,1.3,1.3,0,0,0,.385-.972,1.19,1.19,0,0,0-.385-.93,1.436,1.436,0,0,0-1.014-.352H66.92V24.691h7.834a1.422,1.422,0,0,0,1.014-.369,1.263,1.263,0,0,0,.385-.938,1.232,1.232,0,0,0-.385-.938,1.408,1.408,0,0,0-1.014-.369H66.92V15.441H77.838Z" transform="translate(-64.08 -12.802)" fill="#fff"/>
      <path id="Path_43902" data-name="Path 43902" d="M92,31.4h-.679a1.116,1.116,0,0,1-.98-.654,3.211,3.211,0,0,1-.385-1.667V14.166a1.3,1.3,0,0,0-.385-.98,1.346,1.346,0,0,0-.98-.385,1.3,1.3,0,0,0-.98.385,1.346,1.346,0,0,0-.385.98V29.08a6.234,6.234,0,0,0,.519,2.606,4.4,4.4,0,0,0,1.45,1.793,3.616,3.616,0,0,0,2.128.654h.059a2.191,2.191,0,0,0,1.341-.385,1.177,1.177,0,0,0,.519-.98,1.412,1.412,0,0,0-.344-.98A1.184,1.184,0,0,0,92,31.4Z" transform="translate(-67.832 -12.8)" fill="#fff"/>
      <path id="Path_43903" data-name="Path 43903" d="M100.59,13.23a1.729,1.729,0,0,0-1.274.536,1.748,1.748,0,0,0-.536,1.274,1.729,1.729,0,0,0,.536,1.274,1.748,1.748,0,0,0,1.274.536,1.729,1.729,0,0,0,1.274-.536,1.748,1.748,0,0,0,.536-1.274,1.831,1.831,0,0,0-1.81-1.81Z" transform="translate(-69.706 -12.87)" fill="#fff"/>
      <path id="Path_43904" data-name="Path 43904" d="M100.671,20.43a1.365,1.365,0,0,0-1,.385,1.326,1.326,0,0,0-.394,1.014V33.978a1.422,1.422,0,0,0,2.4,1,1.385,1.385,0,0,0,.385-1V21.829a1.364,1.364,0,0,0-.385-1.014A1.4,1.4,0,0,0,100.671,20.43Z" transform="translate(-69.787 -14.037)" fill="#fff"/>
      <path id="Path_43905" data-name="Path 43905" d="M116.088,31.72h-.93a1.825,1.825,0,0,1-1.475-.737,2.79,2.79,0,0,1-.6-1.827V22.411H115.4a1.312,1.312,0,0,0,.93-.327,1.077,1.077,0,0,0,.352-.821,1.136,1.136,0,0,0-.352-.871,1.312,1.312,0,0,0-.93-.327H113.08v-3.93a1.3,1.3,0,0,0-.385-.98,1.346,1.346,0,0,0-.98-.385,1.3,1.3,0,0,0-.98.385,1.346,1.346,0,0,0-.385.98v3.93h-1.257a1.312,1.312,0,0,0-.93.327,1.136,1.136,0,0,0-.352.871,1.077,1.077,0,0,0,.352.821,1.312,1.312,0,0,0,.93.327h1.257v6.745a5.754,5.754,0,0,0,.628,2.706,4.818,4.818,0,0,0,1.718,1.894,4.508,4.508,0,0,0,2.455.7h.494a1.729,1.729,0,0,0,1.165-.385,1.227,1.227,0,0,0,.452-.98,1.412,1.412,0,0,0-.344-.98A1.082,1.082,0,0,0,116.088,31.72Z" transform="translate(-71.17 -13.119)" fill="#fff"/>
      <path id="Path_43906" data-name="Path 43906" d="M135.268,19.863a6.983,6.983,0,0,0-3.377-.8,6.671,6.671,0,0,0-3.251.8,5.969,5.969,0,0,0-1.391,1.039V14.2a1.364,1.364,0,0,0-.385-1.014,1.384,1.384,0,0,0-1.014-.385,1.335,1.335,0,0,0-1.391,1.4V32.775a1.358,1.358,0,0,0,.394,1,1.326,1.326,0,0,0,1,.394,1.37,1.37,0,0,0,1.014-.394,1.385,1.385,0,0,0,.385-1v-7.7a3.04,3.04,0,0,1,.545-1.785,3.838,3.838,0,0,1,1.475-1.24,4.563,4.563,0,0,1,2.078-.461,4.982,4.982,0,0,1,2.229.478,3.588,3.588,0,0,1,1.542,1.458,4.954,4.954,0,0,1,.57,2.539v6.72a1.358,1.358,0,0,0,.394,1,1.326,1.326,0,0,0,1,.394,1.371,1.371,0,0,0,1-.394,1.326,1.326,0,0,0,.394-1v-6.72a7.759,7.759,0,0,0-.863-3.821A5.669,5.669,0,0,0,135.268,19.863Z" transform="translate(-73.87 -12.8)" fill="#fff"/>
      <path id="Path_43907" data-name="Path 43907" d="M158.481,21.3a7.426,7.426,0,0,0-3.821-1,7.509,7.509,0,0,0-3.837,1,7.379,7.379,0,0,0-2.706,2.715,7.619,7.619,0,0,0-1,3.879,8.019,8.019,0,0,0,.913,3.863,7.132,7.132,0,0,0,2.5,2.706,6.917,6.917,0,0,0,7.155,0,6.806,6.806,0,0,0,1.692-1.517v1.039a1.358,1.358,0,0,0,.394,1,1.326,1.326,0,0,0,1,.394,1.347,1.347,0,0,0,1.391-1.391V27.891a7.619,7.619,0,0,0-1-3.879A7.374,7.374,0,0,0,158.481,21.3Zm.385,9.208a4.744,4.744,0,0,1-1.718,1.827,4.923,4.923,0,0,1-4.96,0,4.828,4.828,0,0,1-1.751-1.827,5.293,5.293,0,0,1-.645-2.606,5.4,5.4,0,0,1,.645-2.639,4.828,4.828,0,0,1,1.751-1.827,4.923,4.923,0,0,1,4.96,0,4.744,4.744,0,0,1,1.718,1.827,5.786,5.786,0,0,1,0,5.245Z" transform="translate(-77.544 -14.016)" fill="#fff"/>
      <path id="Path_43908" data-name="Path 43908" d="M172.97,13.23a1.729,1.729,0,0,0-1.274.536,1.748,1.748,0,0,0-.536,1.274,1.729,1.729,0,0,0,.536,1.274,1.748,1.748,0,0,0,1.274.536,1.729,1.729,0,0,0,1.274-.536,1.748,1.748,0,0,0,.536-1.274,1.831,1.831,0,0,0-1.81-1.81Z" transform="translate(-81.442 -12.87)" fill="#fff"/>
      <path id="Path_43909" data-name="Path 43909" d="M173.051,20.43a1.365,1.365,0,0,0-1,.385,1.326,1.326,0,0,0-.394,1.014V33.978a1.422,1.422,0,0,0,2.4,1,1.385,1.385,0,0,0,.385-1V21.829a1.364,1.364,0,0,0-.385-1.014A1.384,1.384,0,0,0,173.051,20.43Z" transform="translate(-81.523 -14.037)" fill="#fff"/>
      <path id="Path_43910" data-name="Path 43910" d="M192.249,20.776a4.507,4.507,0,0,0-2.447-.536,6,6,0,0,0-4.591,2.044v-.519a1.437,1.437,0,0,0-2.38-1.014,1.368,1.368,0,0,0-.352,1.014V33.973a1.363,1.363,0,0,0,.352,1.022,1.4,1.4,0,0,0,1.014.344,1.363,1.363,0,0,0,1.022-.352,1.4,1.4,0,0,0,.344-1.014V26a2.843,2.843,0,0,1,.8-2.078,4.287,4.287,0,0,1,2.2-1.123,7.546,7.546,0,0,1,3.142.059,1.454,1.454,0,0,0,.654.025,1.109,1.109,0,0,0,.536-.26,1.044,1.044,0,0,0,.31-.587A1.1,1.1,0,0,0,192.249,20.776Z" transform="translate(-83.277 -14.006)" fill="#fff"/>
    </g>
  </g>
</svg>
