<svg width="120" height="80" viewBox="0 0 120 80" fill="none" xmlns="http://www.w3.org/2000/svg">
<path d="M38.8578 75.5242C58.477 75.5242 74.3816 59.6196 74.3816 40.0004C74.3816 20.3811 58.477 4.47656 38.8578 4.47656C19.2385 4.47656 3.33398 20.3811 3.33398 40.0004C3.33398 59.6196 19.2385 75.5242 38.8578 75.5242Z" fill="#E3E8F0"/>
<path d="M24.5718 21.9053H39.6194C41.7147 21.9053 43.7147 22.191 45.4289 22.8577C47.1432 23.5243 48.667 24.3815 49.9051 25.4291C51.1432 26.5719 52.0956 27.9053 52.7623 29.4291C53.4289 30.9529 53.8099 32.6672 53.8099 34.5719V35.0481C53.8099 36.9529 53.4289 38.6672 52.7623 40.2862C52.0956 41.9053 51.048 43.2386 49.8099 44.2862C48.5718 45.4291 47.048 46.2862 45.2385 46.8577C43.5242 47.5243 41.5242 47.81 39.4289 47.81H35.1432V58.191H24.4766V21.9053H24.5718ZM38.3813 39.7148C39.9051 39.7148 41.1432 39.2386 42.0004 38.3815C42.8575 37.4291 43.2385 36.3815 43.2385 35.2386V34.8577C43.2385 33.7148 42.8575 32.7624 42.0956 32.0005C41.3337 31.2386 40.1908 30.8577 38.667 30.8577H34.7623V39.7148H38.2861H38.3813Z" fill="#014799"/>
<path d="M72.0938 58.6668C71.9034 58.6668 71.7129 58.5716 71.6177 58.3811L65.9986 46.762H63.5224V58.0954C63.5224 58.3811 63.2367 58.6668 62.951 58.6668H52.2843C51.9986 58.6668 51.7129 58.3811 51.7129 58.0954V44.2859C51.7129 44.1906 51.7129 44.0001 51.9034 43.9049C53.1415 42.8573 54.0938 41.5239 54.6653 40.0954C55.3319 38.5716 55.6177 36.8573 55.6177 35.0478V34.5716C55.6177 32.762 55.3319 31.143 54.6653 29.7144C53.9986 28.2859 53.0462 26.9525 51.9034 25.9049C51.8081 25.8097 51.7129 25.6192 51.7129 25.4287V22.0001C51.7129 21.7144 51.9986 21.4287 52.2843 21.4287H68.2843C72.6653 21.4287 76.1891 22.4763 78.6653 24.6668C81.2367 26.8573 82.4748 29.9049 82.4748 33.7144V34.1906C82.4748 36.3811 81.9034 38.3811 80.8557 40.1906C79.8081 41.8097 78.57 43.143 76.951 44.0954L84.6653 57.9049C84.7605 58.0954 84.6653 58.2859 84.6653 58.4763C84.6653 58.6668 84.3796 58.762 84.1891 58.762H72.0938V58.6668ZM66.4748 38.1906C67.9986 38.1906 69.2367 37.8097 69.9034 37.143C70.6653 36.4763 70.951 35.6192 70.951 34.5716V34.1906C70.951 33.2382 70.57 32.5716 69.9034 32.0001C69.1415 31.4287 67.9986 31.143 66.4748 31.143H63.0462V38.2859H66.3796L66.4748 38.1906Z" fill="#2F7FDB"/>
<path d="M68.3792 21.9051C72.6649 21.9051 75.9982 22.9527 78.3792 25.0479C80.7601 27.1432 81.9982 30.0003 81.9982 33.6194V34.0956C81.9982 36.1908 81.4268 38.0956 80.3792 39.8098C79.3316 41.5241 77.903 42.8575 76.1887 43.7146L84.1887 58.0003H72.0935L66.3792 46.0956H63.0458V58.0003H52.3792V44.1908C53.6173 43.0479 54.6649 41.7146 55.3316 40.1908C55.9982 38.5718 56.3792 36.8575 56.3792 34.9527V34.4765C56.3792 32.5718 55.9982 30.9527 55.3316 29.3337C54.6649 27.8098 53.7125 26.4765 52.4744 25.3337V21.9051H68.4744M62.6649 38.667H66.5697C68.2839 38.667 69.6173 38.286 70.3792 37.4289C71.2363 36.667 71.6173 35.6194 71.6173 34.4765V34.0956C71.6173 32.9527 71.2363 32.0956 70.3792 31.4289C69.522 30.7622 68.2839 30.4765 66.6649 30.4765H62.6649V38.667ZM68.3792 20.7622H52.3792C51.8078 20.7622 51.2363 21.2384 51.2363 21.9051V25.3337C51.2363 25.7146 51.4268 26.0003 51.6173 26.1908C52.7601 27.2384 53.6173 28.3813 54.2839 29.8098C54.9506 31.2384 55.2363 32.7622 55.2363 34.4765V34.9527C55.2363 36.667 54.9506 38.286 54.2839 39.7146C53.6173 41.1432 52.7601 42.3813 51.6173 43.3337C51.4268 43.5241 51.3316 43.8098 51.3316 44.0956V57.9051C51.3316 58.4765 51.8078 59.0479 52.4744 59.0479H63.1411C63.7125 59.0479 64.2839 58.5718 64.2839 57.9051V47.1432H65.8078L71.2363 58.3813C71.4268 58.7622 71.8078 59.0479 72.1887 59.0479H84.2839C84.6649 59.0479 85.0459 58.8575 85.2363 58.4765C85.4268 58.0956 85.4268 57.7146 85.2363 57.3337L77.7125 44.0003C79.2363 43.0479 80.3792 41.8098 81.3316 40.1908C82.4744 38.286 83.0459 36.1908 83.0459 33.9051V33.4289C83.0459 29.4289 81.7125 26.286 79.0459 24.0003C76.4744 21.8098 72.8554 20.667 68.2839 20.667L68.3792 20.7622ZM63.7125 31.6194H66.5697C67.9982 31.6194 68.9506 31.9051 69.6173 32.3813C70.1887 32.8575 70.4744 33.4289 70.4744 34.1908V34.5718C70.4744 35.4289 70.1887 36.1908 69.522 36.7622C68.9506 37.3337 67.903 37.6194 66.4744 37.6194H63.7125V31.6194Z" fill="white"/>
<path d="M86.1886 58.6663C85.9029 58.6663 85.6172 58.3806 85.6172 58.0949V21.9044C85.6172 21.6187 85.9029 21.333 86.1886 21.333H101.236C103.427 21.333 105.427 21.6187 107.236 22.2854C109.046 22.9521 110.665 23.8092 111.903 24.9521C113.236 26.0949 114.189 27.5235 114.951 29.1425C115.712 30.7616 115.998 32.5711 115.998 34.4759V34.9521C115.998 36.9521 115.617 38.7616 114.951 40.3806C114.189 41.9997 113.236 43.4282 111.903 44.5711C110.57 45.714 109.046 46.5711 107.236 47.2378C105.427 47.9044 103.427 48.1902 101.236 48.1902H97.5219V57.9997C97.5219 58.2854 97.2362 58.5711 96.9505 58.5711H86.2839L86.1886 58.6663ZM100.093 39.1425C101.522 39.1425 102.57 38.7616 103.236 37.9044C103.998 37.0473 104.379 36.1902 104.379 35.1425V34.7616C104.379 33.8092 104.093 32.9521 103.427 32.2854C102.76 31.6187 101.808 31.333 100.474 31.333H97.141V39.1425H100.189H100.093Z" fill="#014799"/>
<path d="M101.237 21.9046C103.333 21.9046 105.333 22.1903 107.047 22.857C108.761 23.5236 110.285 24.3808 111.523 25.4284C112.761 26.5712 113.714 27.9046 114.38 29.4284C115.047 30.9522 115.428 32.6665 115.428 34.5712V35.0474C115.428 36.9522 115.047 38.6665 114.38 40.2855C113.714 41.9046 112.666 43.2379 111.428 44.2855C110.19 45.4284 108.666 46.2855 106.856 46.857C105.142 47.5236 103.142 47.8093 101.047 47.8093H96.7612V58.1903H86.0945V21.9046H101.142M96.4754 39.7141H99.9993C101.523 39.7141 102.761 39.2379 103.618 38.3808C104.475 37.4284 104.856 36.3808 104.856 35.2379V34.857C104.856 33.7141 104.475 32.7617 103.714 31.9998C102.952 31.2379 101.809 30.857 100.285 30.857H96.3802V39.7141M101.237 20.7617H86.1897C85.6183 20.7617 85.0469 21.2379 85.0469 21.9046V58.0951C85.0469 58.6665 85.5231 59.2379 86.1897 59.2379H96.8564C97.4278 59.2379 97.9993 58.7617 97.9993 58.0951V48.857H101.237C103.523 48.857 105.618 48.476 107.428 47.9046C109.333 47.2379 110.952 46.2855 112.285 45.1427C113.714 43.9046 114.761 42.476 115.523 40.6665C116.285 38.9522 116.666 37.0474 116.666 35.0474V34.5712C116.666 32.5712 116.285 30.6665 115.523 29.0474C114.761 27.3331 113.714 25.9046 112.38 24.6665C111.047 23.4284 109.428 22.5712 107.523 21.9046C105.618 21.2379 103.523 20.9522 101.333 20.9522L101.237 20.7617ZM97.6183 31.9046H100.475C101.714 31.9046 102.571 32.1903 103.047 32.6665C103.618 33.2379 103.809 33.9046 103.809 34.6665V35.0474C103.809 35.9998 103.523 36.7617 102.856 37.5236C102.19 38.1903 101.333 38.5712 100.094 38.5712H97.6183V31.9046Z" fill="white"/>
</svg>
